<?xml version="1.0" encoding="UTF-8"?>
<svg version="1.1" xmlns="http://www.w3.org/2000/svg" width="300" height="300">
<path d="M0 0 C0.66189835 -0.0065712 1.32379669 -0.0131424 2.00575256 -0.01991272 C4.20679835 -0.03969769 6.40777554 -0.05132345 8.60888672 -0.0612793 C9.36047939 -0.06535482 10.11207207 -0.06943035 10.88644028 -0.07362938 C14.86911497 -0.0945183 18.85175497 -0.1088043 22.83447266 -0.11816406 C26.94023418 -0.12919806 31.04544914 -0.16355423 35.15101814 -0.20333576 C38.31329317 -0.22955234 41.47543944 -0.23786063 44.63781357 -0.24144554 C46.15041647 -0.24630331 47.66301393 -0.25789424 49.17551041 -0.27648354 C63.88997973 -0.4459999 63.88997973 -0.4459999 69.66357422 4.17700195 C75.27256424 10.22880697 74.90335061 15.63050417 74.97607422 23.48950195 C75.00507813 24.52268555 75.03408203 25.55586914 75.06396484 26.62036133 C75.11628083 32.8942558 74.6811127 36.31950473 70.66357422 41.17700195 C70.66357422 41.83700195 70.66357422 42.49700195 70.66357422 43.17700195 C71.32357422 43.17700195 71.98357422 43.17700195 72.66357422 43.17700195 C75.37524726 47.82252603 76.02480612 51.13368612 75.91357422 56.48950195 C75.87296875 58.4540332 75.87296875 58.4540332 75.83154297 60.45825195 C75.31599916 71.87215207 75.31599916 71.87215207 73.66357422 75.17700195 C73.00357422 75.17700195 72.34357422 75.17700195 71.66357422 75.17700195 C71.58107422 75.79575195 71.49857422 76.41450195 71.41357422 77.05200195 C70.66357422 79.17700195 70.66357422 79.17700195 68.60107422 80.42700195 C67.96169922 80.67450195 67.32232422 80.92200195 66.66357422 81.17700195 C66.66357422 81.83700195 66.66357422 82.49700195 66.66357422 83.17700195 C59.21446566 85.53748191 51.96417828 85.4868332 44.20654297 85.4777832 C42.81268691 85.48167619 41.41883202 85.4860121 40.02497864 85.49076843 C37.11939625 85.49819131 34.21393552 85.49796567 31.30834961 85.49267578 C27.5847121 85.48684993 23.86156697 85.50390521 20.13801098 85.52702045 C17.26669914 85.54173524 14.39550706 85.54263324 11.5241642 85.53951073 C10.15062793 85.54002389 8.77708495 85.54526074 7.40358543 85.55532265 C5.489229 85.56764061 3.57477211 85.55896962 1.66040039 85.54931641 C0.57200363 85.54994583 -0.51639313 85.55057526 -1.63777161 85.55122375 C-4.33642578 85.17700195 -4.33642578 85.17700195 -5.71318054 83.67105103 C-8.42140418 81.17837838 -11.81533517 81.82220823 -15.30517578 81.89990234 C-16.11699814 81.90588943 -16.9288205 81.91187653 -17.76524353 81.91804504 C-19.52991343 81.93281642 -21.29453609 81.95444349 -23.05905151 81.98207283 C-25.85998782 82.02501948 -28.66046876 82.04833092 -31.46166992 82.06626892 C-39.4265906 82.12128597 -47.39098504 82.21535803 -55.35546875 82.31396484 C-60.22830914 82.37293716 -65.10100879 82.41189895 -69.97412109 82.43969536 C-72.71903528 82.46171782 -75.46291949 82.50721152 -78.20751953 82.55323792 C-98.06294848 82.75124527 -98.06294848 82.75124527 -105.28735352 76.48475647 C-111.66154744 69.81765854 -112.79299639 62.76244929 -112.73486328 53.89575195 C-112.73916855 52.43727844 -112.73916855 52.43727844 -112.74356079 50.94934082 C-112.74559423 48.90201227 -112.74011496 46.85466398 -112.72753906 44.80737305 C-112.71147543 41.68664812 -112.7274126 38.5672182 -112.74658203 35.4465332 C-112.74459947 33.45043662 -112.74075554 31.45434083 -112.73486328 29.45825195 C-112.74093597 28.53202026 -112.74700867 27.60578857 -112.75326538 26.65148926 C-112.67310238 19.21024603 -111.09657736 13.70905558 -106.14892578 7.92700195 C-105.61912109 7.2824707 -105.08931641 6.63793945 -104.54345703 5.97387695 C-98.84420113 1.33377481 -92.50410849 0.74111911 -85.45776367 0.85229492 C-84.60964111 0.85346313 -83.76151855 0.85463135 -82.88769531 0.85583496 C-80.11123342 0.86296783 -77.33540405 0.89112213 -74.55908203 0.91918945 C-72.62235564 0.9273321 -70.68562251 0.933993 -68.74888611 0.9392395 C-63.67096001 0.95629789 -58.59330428 0.99053046 -53.51550293 1.02929688 C-45.36363951 1.08868533 -37.21163539 1.12227338 -29.05962944 1.15506363 C-26.20937243 1.16906522 -23.35924791 1.19064132 -20.50904846 1.21334839 C-18.77580861 1.22336465 -17.04256788 1.23323024 -15.30932617 1.24291992 C-14.51197556 1.25122833 -13.71462494 1.25953674 -12.89311218 1.26809692 C-11.04065008 1.27569523 -9.18808698 1.23199606 -7.33642578 1.17700195 C-5.48896397 -0.67045986 -2.47392787 0.02025364 0 0 Z M-2.33642578 3.17700195 C-2.66642578 7.79700195 -2.99642578 12.41700195 -3.33642578 17.17700195 C-0.76509119 18.46266925 1.06074522 18.29709974 3.93945312 18.29052734 C5.04044342 18.29045181 6.14143372 18.29037628 7.27578735 18.29029846 C8.46852264 18.28513718 9.66125793 18.27997589 10.89013672 18.2746582 C12.10808929 18.27324326 13.32604187 18.27182831 14.5809021 18.27037048 C18.48348412 18.26475834 22.38600945 18.25220374 26.28857422 18.23950195 C28.92919839 18.23448852 31.56982346 18.22992534 34.21044922 18.22583008 C40.69484617 18.21478495 47.17920057 18.19751214 53.66357422 18.17700195 C53.66357422 23.45700195 53.66357422 28.73700195 53.66357422 34.17700195 C36.50357422 34.17700195 19.34357422 34.17700195 1.66357422 34.17700195 C1.66357422 39.12700195 1.66357422 44.07700195 1.66357422 49.17700195 C19.15357422 49.17700195 36.64357422 49.17700195 54.66357422 49.17700195 C54.66357422 54.78700195 54.66357422 60.39700195 54.66357422 66.17700195 C25.95357422 66.67200195 25.95357422 66.67200195 -3.33642578 67.17700195 C-3.33642578 71.79700195 -3.33642578 76.41700195 -3.33642578 81.17700195 C4.73959741 81.26763412 12.81522039 81.34090735 20.89161682 81.38425064 C24.64245611 81.40506093 28.39292723 81.43325662 32.14355469 81.47875977 C35.76810284 81.52245445 39.39229849 81.54618831 43.01708984 81.55651093 C44.39491316 81.56386027 45.77271877 81.57821142 47.15039062 81.59992218 C55.06076865 81.71954156 60.98153615 81.64728039 67.66357422 77.17700195 C72.03516252 71.66769746 72.23237647 66.98428161 72.03857422 60.11450195 C72.03728516 59.24245117 72.03599609 58.37040039 72.03466797 57.47192383 C71.96915166 52.66375458 71.51498837 48.68704682 69.66357422 44.17700195 C68.01357422 43.84700195 66.36357422 43.51700195 64.66357422 43.17700195 C64.66357422 42.18700195 64.66357422 41.19700195 64.66357422 40.17700195 C65.32357422 40.17700195 65.98357422 40.17700195 66.66357422 40.17700195 C72.05044166 31.82735741 73.23331174 23.66542194 71.18701172 13.90356445 C69.5269482 9.3233892 66.50928537 6.90104735 62.66357422 4.17700195 C59.40985877 3.09243014 57.05458102 3.05653338 53.6315918 3.06347656 C51.77000175 3.06358986 51.77000175 3.06358986 49.87080383 3.06370544 C48.51657064 3.06881205 47.16233785 3.07402804 45.80810547 3.0793457 C44.42233837 3.08121112 43.03657061 3.08263444 41.65080261 3.08363342 C38.00609512 3.08744886 34.36142757 3.09727083 30.71673584 3.1083374 C26.99654684 3.11857246 23.27635137 3.12313553 19.55615234 3.12817383 C12.258606 3.13889397 4.9611008 3.15648289 -2.33642578 3.17700195 Z M-7.33642578 18.17700195 C-17.69826336 18.21502974 -28.0597388 18.27434881 -38.42129135 18.36090469 C-43.232535 18.40042552 -48.04359437 18.43259133 -52.85498047 18.44799805 C-57.49768297 18.46313441 -62.139879 18.49752584 -66.78235626 18.54531097 C-68.55413665 18.56015604 -70.32598934 18.56804476 -72.09783173 18.5688858 C-74.57862947 18.57124789 -77.05801882 18.59826426 -79.53857422 18.63110352 C-80.63909119 18.62355797 -80.63909119 18.62355797 -81.76184082 18.61585999 C-85.14371965 18.68519287 -87.03417323 18.95479153 -89.79045105 20.9811554 C-92.08056364 24.23394844 -91.92816999 27.42965016 -91.90283203 31.2668457 C-91.90903061 32.04838516 -91.91522919 32.82992462 -91.9216156 33.63514709 C-91.92870681 35.2850724 -91.92555183 36.93506935 -91.9128418 38.58496094 C-91.89898732 41.10331635 -91.93303554 43.61794541 -91.97119141 46.13598633 C-91.9721428 47.74210703 -91.9702827 49.34823235 -91.96533203 50.9543457 C-91.97859024 51.70344711 -91.99184845 52.45254852 -92.00550842 53.22434998 C-91.94263142 56.77357889 -91.39383804 59.07717585 -89.62060547 62.16040039 C-84.37455205 65.38166126 -79.19065979 64.79048761 -73.16064453 64.6652832 C-71.24020073 64.6546711 -71.24020073 64.6546711 -69.28096008 64.6438446 C-65.88897266 64.62481909 -62.49806804 64.57576033 -59.10650635 64.52032471 C-55.64097744 64.46903394 -52.17527231 64.44630984 -48.70947266 64.42114258 C-41.91798892 64.36603605 -35.12730549 64.28237841 -28.33642578 64.17700195 C-27.02477736 61.55370511 -27.20379732 59.5400157 -27.21142578 56.61450195 C-27.20884766 55.62321289 -27.20626953 54.63192383 -27.20361328 53.6105957 C-27.06204147 51.22887848 -27.06204147 51.22887848 -28.33642578 50.17700195 C-31.14805958 50.08838203 -33.93500834 50.0617784 -36.74658203 50.0793457 C-38.00963417 50.08146812 -38.00963417 50.08146812 -39.29820251 50.08363342 C-41.99847913 50.08924932 -44.69867406 50.10180447 -47.39892578 50.11450195 C-49.22509646 50.11951491 -51.05126844 50.12407817 -52.87744141 50.12817383 C-57.3638012 50.13922391 -61.85009962 50.15649916 -66.33642578 50.17700195 C-66.04345703 48.38663737 -65.75048828 46.59627279 -65.45751953 44.8059082 C-65.27864815 40.92266812 -65.90713896 37.04058337 -66.33642578 33.17700195 C-46.86642578 33.17700195 -27.39642578 33.17700195 -7.33642578 33.17700195 C-7.33642578 48.35700195 -7.33642578 63.53700195 -7.33642578 79.17700195 C-7.00642578 79.17700195 -6.67642578 79.17700195 -6.33642578 79.17700195 C-6.33642578 74.22700195 -6.33642578 69.27700195 -6.33642578 64.17700195 C-4.71631592 64.18223877 -3.09620605 64.18747559 -1.42700195 64.19287109 C4.57201589 64.21094306 10.57103131 64.22244205 16.57006836 64.23193359 C19.16870529 64.23696877 21.76733937 64.24379726 24.3659668 64.25244141 C28.09668681 64.26454258 31.82736944 64.27023837 35.55810547 64.2746582 C36.72380569 64.27981949 37.88950592 64.28498077 39.0905304 64.29029846 C40.17142441 64.29037399 41.25231842 64.29044952 42.3659668 64.29052734 C43.31860916 64.29274796 44.27125153 64.29496857 45.25276184 64.29725647 C47.8083092 64.27796378 47.8083092 64.27796378 50.66357422 63.17700195 C50.66357422 59.54700195 50.66357422 55.91700195 50.66357422 52.17700195 C33.50357422 52.17700195 16.34357422 52.17700195 -1.33642578 52.17700195 C-1.33642578 45.24700195 -1.33642578 38.31700195 -1.33642578 31.17700195 C15.82357422 31.17700195 32.98357422 31.17700195 50.66357422 31.17700195 C50.66357422 27.87700195 50.66357422 24.57700195 50.66357422 21.17700195 C31.85357422 21.17700195 13.04357422 21.17700195 -6.33642578 21.17700195 C-6.83142578 19.69200195 -6.83142578 19.69200195 -7.33642578 18.17700195 Z " fill="#161616" transform="translate(166.33642578125,97.822998046875)"/>
<path d="M0 0 C8.87551703 -0.09286954 17.75086561 -0.1638505 26.62676334 -0.20724869 C30.74866518 -0.22808259 34.87023346 -0.25632261 38.99194336 -0.30175781 C42.97309565 -0.34536665 46.95392803 -0.36916865 50.93530083 -0.37950897 C52.45070872 -0.38687351 53.96610002 -0.4012548 55.48137093 -0.42292023 C70.23413863 -0.62537875 70.23413863 -0.62537875 76 4 C81.60899002 10.05180502 81.23977639 15.45350222 81.3125 23.3125 C81.35600586 24.86227539 81.35600586 24.86227539 81.40039062 26.44335938 C81.45270661 32.71725384 81.01753848 36.14250278 77 41 C77 41.66 77 42.32 77 43 C77.66 43 78.32 43 79 43 C81.71167304 47.64552408 82.3612319 50.95668416 82.25 56.3125 C82.20939453 58.27703125 82.20939453 58.27703125 82.16796875 60.28125 C81.65242494 71.69515012 81.65242494 71.69515012 80 75 C79.34 75 78.68 75 78 75 C77.9175 75.61875 77.835 76.2375 77.75 76.875 C77 79 77 79 74.9375 80.25 C74.298125 80.4975 73.65875 80.745 73 81 C73 81.66 73 82.32 73 83 C65.55427389 85.35412455 58.29696562 85.3274948 50.54296875 85.3359375 C49.14911262 85.34237408 47.7552578 85.34910307 46.36140442 85.35610962 C43.45582948 85.3680219 40.55037299 85.37179604 37.64477539 85.37060547 C33.92101856 85.37040105 30.19801439 85.39785519 26.47443676 85.43214989 C23.60311882 85.45435798 20.73198503 85.45844513 17.86058998 85.45738602 C16.48703699 85.45974532 15.11347919 85.46858754 13.74001122 85.48405075 C11.82571603 85.50361062 9.91119753 85.495376 7.99682617 85.48583984 C6.90842941 85.48868988 5.82003265 85.49153992 4.69865417 85.49447632 C2 85 2 85 -1 81 C-0.67 75.39 -0.34 69.78 0 64 C28.215 63.505 28.215 63.505 57 63 C57 59.37 57 55.74 57 52 C39.84 52 22.68 52 5 52 C5 45.07 5 38.14 5 31 C22.16 31 39.32 31 57 31 C57 27.7 57 24.4 57 21 C38.19 21 19.38 21 0 21 C-0.93825328 16.30873358 -0.92759102 12.38332585 -0.5625 7.6875 C-0.51029297 6.94693359 -0.45808594 6.20636719 -0.40429688 5.44335938 C-0.27549848 3.62847291 -0.13856738 1.81416675 0 0 Z M4 3 C3.67 7.62 3.34 12.24 3 17 C5.57133459 18.28566729 7.397171 18.12009778 10.27587891 18.11352539 C11.3768692 18.11344986 12.4778595 18.11337433 13.61221313 18.11329651 C14.80494843 18.10813522 15.99768372 18.10297394 17.2265625 18.09765625 C18.44451508 18.0962413 19.66246765 18.09482635 20.91732788 18.09336853 C24.8199099 18.08775639 28.72243523 18.07520179 32.625 18.0625 C35.26562417 18.05748657 37.90624924 18.05292339 40.546875 18.04882812 C47.03127195 18.037783 53.51562635 18.02051018 60 18 C60 23.28 60 28.56 60 34 C42.84 34 25.68 34 8 34 C8 38.95 8 43.9 8 49 C25.49 49 42.98 49 61 49 C61 54.61 61 60.22 61 66 C32.29 66.495 32.29 66.495 3 67 C3 71.62 3 76.24 3 81 C11.0760232 81.09063217 19.15164617 81.1639054 27.2280426 81.20724869 C30.97888189 81.22805897 34.72935302 81.25625467 38.47998047 81.30175781 C42.10452862 81.3454525 45.72872427 81.36918636 49.35351562 81.37950897 C50.73133894 81.38685832 52.10914455 81.40120946 53.48681641 81.42292023 C61.39719444 81.54253961 67.31796193 81.47027844 74 77 C78.3715883 71.4906955 78.56880225 66.80727965 78.375 59.9375 C78.37371094 59.06544922 78.37242187 58.19339844 78.37109375 57.29492188 C78.30557744 52.48675262 77.85141415 48.51004487 76 44 C74.35 43.67 72.7 43.34 71 43 C71 42.01 71 41.02 71 40 C71.66 40 72.32 40 73 40 C78.38686744 31.65035546 79.56973752 23.48841999 77.5234375 13.7265625 C75.86337398 9.14638725 72.84571115 6.7240454 69 4 C65.74628455 2.91542818 63.3910068 2.87953143 59.96801758 2.88647461 C58.10642754 2.88658791 58.10642754 2.88658791 56.20722961 2.88670349 C54.85299642 2.89181009 53.49876363 2.89702609 52.14453125 2.90234375 C50.75876415 2.90420917 49.37299639 2.90563249 47.98722839 2.90663147 C44.3425209 2.9104469 40.69785335 2.92026887 37.05316162 2.93133545 C33.33297262 2.9415705 29.61277715 2.94613358 25.89257812 2.95117188 C18.59503178 2.96189202 11.29752658 2.97948093 4 3 Z " fill="#5E5E5E" transform="translate(160,98)"/>
<path d="M0 0 C1.535759 -0.01683267 3.07145826 -0.04067912 4.60699463 -0.07177734 C6.77871829 -0.11387154 8.94916523 -0.12945234 11.12124634 -0.13867188 C12.36631958 -0.15325439 13.61139282 -0.16783691 14.89419556 -0.18286133 C20.35844581 0.54106722 24.03358039 2.76797473 27.81655884 6.84960938 C31.30241888 12.07839944 30.69791065 17.53186192 30.75405884 23.59960938 C30.7975647 25.14938477 30.7975647 25.14938477 30.84194946 26.73046875 C30.89426545 33.00436322 30.45909732 36.42961215 26.44155884 41.28710938 C26.44155884 41.94710937 26.44155884 42.60710937 26.44155884 43.28710938 C27.10155884 43.28710938 27.76155884 43.28710938 28.44155884 43.28710938 C31.15323188 47.93263346 31.80279073 51.24379354 31.69155884 56.59960938 C31.65095337 58.56414062 31.65095337 58.56414062 31.60952759 60.56835938 C31.09398378 71.98225949 31.09398378 71.98225949 29.44155884 75.28710938 C28.78155884 75.28710938 28.12155884 75.28710938 27.44155884 75.28710938 C27.35905884 75.90585938 27.27655884 76.52460938 27.19155884 77.16210938 C26.44155884 79.28710938 26.44155884 79.28710938 24.37905884 80.53710938 C23.73968384 80.78460938 23.10030884 81.03210938 22.44155884 81.28710938 C22.44155884 81.94710937 22.44155884 82.60710937 22.44155884 83.28710938 C14.95200299 85.68144747 7.67951376 85.54388565 -0.12094116 85.48242188 C-1.52198076 85.47868528 -2.923023 85.47584137 -4.32406616 85.47384644 C-7.98684073 85.46626077 -11.64945318 85.44665674 -15.31216431 85.42443848 C-19.05959888 85.40387 -22.80706 85.39482134 -26.55453491 85.38476562 C-33.88924372 85.3634053 -41.2238196 85.3293317 -48.55844116 85.28710938 C-48.55844116 84.95710938 -48.55844116 84.62710938 -48.55844116 84.28710938 C-44.10344116 83.79210937 -44.10344116 83.79210937 -39.55844116 83.28710938 C-43.51844116 82.79210937 -43.51844116 82.79210937 -47.55844116 82.28710938 C-47.55844116 81.95710938 -47.55844116 81.62710938 -47.55844116 81.28710938 C-46.39452347 81.27831001 -46.39452347 81.27831001 -45.20709229 81.26933289 C-37.88010667 81.21133219 -30.55345826 81.13921376 -23.22677422 81.05139446 C-19.46039868 81.00674357 -15.69412998 80.96747618 -11.92758179 80.94067383 C-8.28988876 80.91458761 -4.65260805 80.87414856 -1.01517105 80.82392311 C0.36977875 80.80729014 1.75479982 80.79575366 3.13983536 80.78949547 C5.08574057 80.77981635 7.03151383 80.75002782 8.97720337 80.71948242 C10.08306793 80.70837936 11.1889325 80.69727631 12.32830811 80.68583679 C15.88186111 80.23071797 18.3112983 78.98164757 21.44155884 77.28710938 C22.10155884 77.28710938 22.76155884 77.28710938 23.44155884 77.28710938 C23.90562134 76.11148438 23.90562134 76.11148438 24.37905884 74.91210938 C25.44155884 72.28710938 25.44155884 72.28710938 26.44155884 70.28710938 C26.53695005 68.83644308 26.57229364 67.38153211 26.57437134 65.92773438 C26.5756604 65.05890625 26.57694946 64.19007813 26.57827759 63.29492188 C26.5744104 62.38484375 26.57054321 61.47476563 26.56655884 60.53710938 C26.57042603 59.6425 26.57429321 58.74789062 26.57827759 57.82617188 C26.57145394 53.19973668 26.39087977 48.83782242 25.44155884 44.28710938 C23.79155884 43.95710938 22.14155884 43.62710938 20.44155884 43.28710938 C20.44155884 42.29710937 20.44155884 41.30710938 20.44155884 40.28710938 C21.10155884 40.28710938 21.76155884 40.28710938 22.44155884 40.28710938 C22.54468384 39.75085938 22.64780884 39.21460938 22.75405884 38.66210938 C23.44155884 36.28710938 23.44155884 36.28710938 24.96109009 33.57226562 C27.67547196 27.54905941 27.32745342 20.3732123 25.93765259 13.96289062 C24.40637403 9.92906539 22.0039799 7.60268306 18.44155884 5.28710938 C15.26683178 4.22886702 12.83966018 4.09323622 9.50137329 3.98999023 C7.66981438 3.93004128 7.66981438 3.93004128 5.80125427 3.86888123 C4.48243759 3.83029495 3.16362091 3.79170868 1.80484009 3.75195312 C0.44148026 3.70893478 -0.92186705 3.66551817 -2.28520203 3.62171936 C-5.870592 3.5076054 -9.4561264 3.39890249 -13.04171753 3.2913208 C-16.70169142 3.1805507 -20.36150311 3.06467056 -24.02133179 2.94921875 C-31.20021917 2.72351051 -38.37926678 2.50351774 -45.55844116 2.28710938 C-45.55844116 1.95710938 -45.55844116 1.62710938 -45.55844116 1.28710938 C-30.38043529 0.62574303 -15.19238519 0.13931614 0 0 Z " fill="#5C5C5C" transform="translate(210.55844116210938,97.712890625)"/>
<path d="M0 0 C11.22 0 22.44 0 34 0 C34 0.99 34 1.98 34 3 C24.1 3 14.2 3 4 3 C4 7.29 4 11.58 4 16 C5.66342837 17.66342837 7.7825709 17.36048097 10.0625 17.5625 C10.98160156 17.64628906 11.90070313 17.73007813 12.84765625 17.81640625 C13.91306641 17.90728516 13.91306641 17.90728516 15 18 C15 18.33 15 18.66 15 19 C21.93 19.495 21.93 19.495 29 20 C29 20.33 29 20.66 29 21 C19.43 21 9.86 21 0 21 C-1 16 -1 16 0 0 Z " fill="#696969" transform="translate(160,98)"/>
<path d="M0 0 C17.16 0 34.32 0 52 0 C52 5.61 52 11.22 52 17 C51.67 17 51.34 17 51 17 C51 11.72 51 6.44 51 1 C50.34 1 49.68 1 49 1 C49 1.66 49 2.32 49 3 C32.5 3 16 3 -1 3 C-0.67 2.01 -0.34 1.02 0 0 Z " fill="#585858" transform="translate(169,147)"/>
<path d="M0 0 C27.72 0 55.44 0 84 0 C84 0.33 84 0.66 84 1 C82.50662361 1.01213028 82.50662361 1.01213028 80.983078 1.02450562 C71.6097139 1.10192361 62.23649573 1.18965181 52.86332226 1.28752708 C48.04424619 1.33751537 43.22519231 1.38384516 38.40600586 1.421875 C33.756954 1.45869585 29.10808668 1.50504701 24.45919228 1.55806351 C22.68378238 1.5766245 20.9083329 1.59172614 19.132864 1.60334396 C16.64982499 1.62017733 14.16721021 1.64920491 11.68432617 1.68115234 C10.94705292 1.68331253 10.20977966 1.68547272 9.45016479 1.68769836 C5.75752316 1.74856563 4.15589573 1.89606952 1 4 C0.67 2.68 0.34 1.36 0 0 Z " fill="#4D4D4D" transform="translate(75,116)"/>
<path d="M0 0 C0.66 0 1.32 0 2 0 C2 0.66 2 1.32 2 2 C2.66 2.33 3.32 2.66 4 3 C0.21786865 4.24810335 -3.46799294 4.03501717 -7.390625 3.87890625 C-8.09523865 3.85529526 -8.79985229 3.83168427 -9.52581787 3.80735779 C-11.7674328 3.73103023 -14.00867496 3.64687421 -16.25 3.5625 C-17.7734195 3.5092483 -19.29685698 3.45650812 -20.8203125 3.40429688 C-24.54710155 3.27545752 -28.27359667 3.13959768 -32 3 C-32 2.67 -32 2.34 -32 2 C-31.06615479 1.97494385 -30.13230957 1.9498877 -29.17016602 1.92407227 C-25.71674811 1.82913072 -22.2635104 1.72988742 -18.81030273 1.62768555 C-17.31360731 1.58428187 -15.81686061 1.54261087 -14.32006836 1.50268555 C-12.17285688 1.44511384 -10.02590479 1.38138284 -7.87890625 1.31640625 C-6.5854126 1.27974854 -5.29191895 1.24309082 -3.95922852 1.20532227 C-1.11444992 1.3332722 -1.11444992 1.3332722 0 0 Z " fill="#090909" transform="translate(139,144)"/>
<path d="M0 0 C0.33 0 0.66 0 1 0 C1.33 2.64 1.66 5.28 2 8 C5.3 8.66 8.6 9.32 12 10 C12 10.33 12 10.66 12 11 C8.04 11 4.08 11 0 11 C-0.66 9.35 -1.32 7.7 -2 6 C-1.67 6 -1.34 6 -1 6 C-0.67 4.02 -0.34 2.04 0 0 Z " fill="#929292" transform="translate(161,171)"/>
<path d="M0 0 C0.66 0.33 1.32 0.66 2 1 C2.6875 4 2.6875 4 3 7 C2.67 7.33 2.34 7.66 2 8 C1.76572222 10.01594582 1.58663876 12.038474 1.4375 14.0625 C1.35371094 15.16722656 1.26992187 16.27195312 1.18359375 17.41015625 C1.12300781 18.26480469 1.06242188 19.11945313 1 20 C0.67 20 0.34 20 0 20 C-0.33559955 17.39610703 -0.66856858 14.7919239 -1 12.1875 C-1.09539062 11.44951172 -1.19078125 10.71152344 -1.2890625 9.95117188 C-1.66984677 6.94569605 -2 4.03285559 -2 1 C-1.34 1.33 -0.68 1.66 0 2 C0 1.34 0 0.68 0 0 Z " fill="#585858" transform="translate(238,106)"/>
<path d="M0 0 C0.66 0.33 1.32 0.66 2 1 C1.25 3.4375 1.25 3.4375 0 6 C-1.875 6.75 -1.875 6.75 -4 7 C-5.33588366 7.32296089 -6.66966561 7.65489233 -8 8 C-7.04578192 6.85073734 -6.08647955 5.70569459 -5.125 4.5625 C-4.59132812 3.92441406 -4.05765625 3.28632812 -3.5078125 2.62890625 C-2 1 -2 1 0 0 Z " fill="#333333" transform="translate(66,101)"/>
<path d="M0 0 C1.9375 0.3125 1.9375 0.3125 4 1 C4.33 1.99 4.66 2.98 5 4 C4.34 4 3.68 4 3 4 C2.67 5.32 2.34 6.64 2 8 C0.4375 6.25 0.4375 6.25 -1 4 C-0.6875 1.75 -0.6875 1.75 0 0 Z " fill="#20201F" transform="translate(56,161)"/>
<path d="M0 0 C0.99 0.66 1.98 1.32 3 2 C3 2.66 3 3.32 3 4 C3.66 4 4.32 4 5 4 C4.67 4.66 4.34 5.32 4 6 C1.69 5.34 -0.62 4.68 -3 4 C-3 3.01 -3 2.02 -3 1 C-2.01 0.67 -1.02 0.34 0 0 Z " fill="#565656" transform="translate(234,137)"/>
</svg>
